<svg xmlns="http://www.w3.org/2000/svg" version="1.1" xmlns:xlink="http://www.w3.org/1999/xlink" xmlns:svgjs="http://svgjs.dev/svgjs" width="1350" height="260" preserveAspectRatio="none" viewBox="0 0 1350 260"><g mask="url(&quot;#SvgjsMask1036&quot;)" fill="none"><path d="M1462.5 260L0 260 L0 194.64Q60.92 143.06, 112.5 203.98Q131.35 155.33, 180 174.19Q199.31 126, 247.5 145.31Q273.81 104.13, 315 130.44Q392.1 95.03, 427.5 172.13Q470.64 147.77, 495 190.91Q566 149.41, 607.5 220.41Q621.75 122.16, 720 136.4Q771.96 120.86, 787.5 172.82Q808.78 126.6, 855 147.89Q883.26 108.65, 922.5 136.92Q975.14 122.06, 990 174.7Q1032.53 104.72, 1102.5 147.25Q1160.14 137.39, 1170 195.03Q1192.9 150.44, 1237.5 173.34Q1273.47 96.81, 1350 132.78Q1412.8 83.08, 1462.5 145.88z" fill="rgba(195, 204, 215, 1)"></path><path d="M1417.5 260L0 260 L0 213.6Q85.17 186.27, 112.5 271.45Q158.17 204.62, 225 250.28Q266.6 179.38, 337.5 220.98Q423.19 194.17, 450 279.86Q494.59 211.95, 562.5 256.54Q589.86 171.4, 675 198.76Q743.95 155.21, 787.5 224.16Q847.76 216.92, 855 277.18Q877.27 186.95, 967.5 209.23Q1007.53 181.76, 1035 221.8Q1083.86 203.16, 1102.5 252.01Q1131.52 168.52, 1215 197.54Q1259.12 174.16, 1282.5 218.28Q1321.51 189.79, 1350 228.8Q1411.66 222.96, 1417.5 284.62z" fill="rgba(255, 255, 255, 1)"></path></g><defs><mask id="SvgjsMask1036"><rect width="1350" height="260" fill="#ffffff"></rect></mask></defs></svg>